<svg width="55" height="55" viewBox="0 0 55 55" fill="none" xmlns="http://www.w3.org/2000/svg">
<path d="M30.8063 5.84C30.8943 5.84 30.9703 5.872 31.0343 5.936C31.0983 6 31.1303 6.076 31.1303 6.164V7.868C31.1303 7.956 31.0983 8.032 31.0343 8.096C30.9703 8.16 30.8943 8.192 30.8063 8.192H26.2103C26.1223 8.192 26.0463 8.16 25.9823 8.096C25.9183 8.032 25.8863 7.956 25.8863 7.868V6.164C25.8863 6.076 25.9183 6 25.9823 5.936C26.0463 5.872 26.1223 5.84 26.2103 5.84H30.8063Z" fill="#29FD2F"/>
<path d="M47.948 30.6343C47.836 30.6343 47.744 30.6063 47.672 30.5503C47.6 30.5023 47.524 30.4143 47.444 30.2863L44.204 25.2463C44.18 25.2063 44.168 25.1623 44.168 25.1143C44.168 25.0423 44.192 24.9823 44.24 24.9343C44.288 24.8863 44.348 24.8623 44.42 24.8623L46.364 24.8623C46.484 24.8623 46.576 24.8903 46.64 24.9463C46.712 25.0103 46.768 25.0703 46.808 25.1263C46.848 25.1903 46.872 25.2303 46.88 25.2463L48.2 27.3463L49.52 25.2463C49.528 25.2303 49.556 25.1823 49.604 25.1023C49.652 25.0303 49.712 24.9703 49.784 24.9223C49.856 24.8823 49.94 24.8623 50.036 24.8623L51.98 24.8623C52.052 24.8623 52.112 24.8863 52.16 24.9343C52.208 24.9823 52.232 25.0423 52.232 25.1143C52.232 25.1623 52.22 25.2063 52.196 25.2463L48.956 30.2863C48.876 30.4143 48.8 30.5023 48.728 30.5503C48.656 30.6063 48.564 30.6343 48.452 30.6343L47.948 30.6343Z" fill="#29FD2F"/>
<path d="M43.1163 42.0973C43.0428 42.0011 43.0117 41.8795 43.023 41.7324C43.0286 41.591 43.0852 41.4665 43.1927 41.359L44.7625 39.7893C44.8134 39.7384 44.8756 39.7101 44.9491 39.7044C45.0227 39.7101 45.0849 39.7384 45.1358 39.7893C45.1584 39.8119 45.1754 39.8345 45.1867 39.8571L46.4256 42.7082C46.4652 42.8044 46.4821 42.9119 46.4765 43.0306C46.4652 43.1551 46.4086 43.2682 46.3068 43.3701L45.2207 44.4562C45.1697 44.5071 45.1075 44.5297 45.034 44.5241C44.9604 44.5297 44.8982 44.5071 44.8473 44.4562L44.8303 44.4392L43.1163 42.0973ZM40.5283 44.6853C40.4548 44.5891 40.4236 44.4675 40.435 44.3204C40.4406 44.179 40.4972 44.0545 40.6047 43.9471L42.1744 42.3773C42.2254 42.3264 42.2876 42.2981 42.3611 42.2924C42.4347 42.2981 42.4969 42.3264 42.5478 42.3773C42.5704 42.3999 42.5874 42.4225 42.5987 42.4452L43.8376 45.2962C43.8772 45.3924 43.8941 45.4999 43.8885 45.6187C43.8772 45.7431 43.8206 45.8562 43.7188 45.9581L42.6326 47.0442C42.5817 47.0951 42.5195 47.1177 42.446 47.1121C42.3724 47.1177 42.3102 47.0951 42.2593 47.0442L42.2423 47.0272L40.5283 44.6853Z" fill="#29FD2F"/>
<path d="M10.6033 41.9716C10.5411 41.9093 10.51 41.833 10.51 41.7425C10.51 41.652 10.5411 41.5756 10.6033 41.5134L12.1222 39.9945C12.1844 39.9323 12.2608 39.9012 12.3513 39.9012C12.4418 39.9012 12.5182 39.9323 12.5804 39.9945L14.3029 41.717C14.3652 41.7792 14.3963 41.8556 14.3963 41.9461C14.3963 42.0366 14.3652 42.113 14.3029 42.1752L12.7841 43.6941C12.7218 43.7563 12.6455 43.7874 12.555 43.7874C12.4645 43.7874 12.3881 43.7563 12.3259 43.6941L10.6033 41.9716ZM13.4968 39.0781C13.4346 39.0159 13.4035 38.9395 13.4035 38.849C13.4035 38.7585 13.4346 38.6821 13.4968 38.6199L15.0157 37.101C15.0779 37.0388 15.1543 37.0077 15.2448 37.0077C15.3353 37.0077 15.4117 37.0388 15.4739 37.101L17.1964 38.8235C17.2586 38.8858 17.2897 38.9621 17.2897 39.0526C17.2897 39.1431 17.2586 39.2195 17.1964 39.2817L15.6775 40.8006C15.6153 40.8628 15.539 40.8939 15.4484 40.8939C15.3579 40.8939 15.2816 40.8628 15.2193 40.8006L13.4968 39.0781Z" fill="#29FD2F"/>
<path d="M31.0583 47.724C31.0583 47.852 31.0303 47.956 30.9743 48.036C30.9183 48.108 30.8303 48.172 30.7103 48.228L30.5063 48.312C30.2983 48.4 30.1583 48.548 30.0863 48.756C30.0143 48.964 29.9783 49.228 29.9783 49.548C29.9783 50.692 29.6223 51.536 28.9103 52.08C28.1983 52.624 27.2943 52.896 26.1983 52.896C26.1263 52.896 26.0623 52.868 26.0063 52.812C25.9583 52.764 25.9343 52.704 25.9343 52.632V50.868C25.9343 50.796 25.9583 50.736 26.0063 50.688C26.0543 50.64 26.1063 50.612 26.1623 50.604C26.4743 50.564 26.7223 50.504 26.9063 50.424C27.0903 50.344 27.2263 50.216 27.3143 50.04C27.4103 49.864 27.4583 49.616 27.4583 49.296C27.4583 48.816 27.5543 48.384 27.7463 48C27.9383 47.608 28.1743 47.372 28.4543 47.292C28.1663 47.212 27.9263 46.988 27.7343 46.62C27.5503 46.252 27.4583 45.808 27.4583 45.288C27.4583 44.968 27.4103 44.72 27.3143 44.544C27.2263 44.368 27.0903 44.24 26.9063 44.16C26.7223 44.08 26.4743 44.02 26.1623 43.98C26.1063 43.972 26.0543 43.944 26.0063 43.896C25.9583 43.848 25.9343 43.788 25.9343 43.716V41.952C25.9343 41.88 25.9583 41.82 26.0063 41.772C26.0623 41.716 26.1263 41.688 26.1983 41.688C27.2943 41.688 28.1983 41.96 28.9103 42.504C29.6223 43.048 29.9783 43.892 29.9783 45.036C29.9783 45.348 30.0143 45.612 30.0863 45.828C30.1583 46.036 30.2983 46.184 30.5063 46.272L30.7103 46.356C30.8303 46.412 30.9183 46.48 30.9743 46.56C31.0303 46.632 31.0583 46.732 31.0583 46.86V47.724Z" fill="#29FD2F"/>
<path d="M7.06 24.3583C7.06 24.2703 7.092 24.1943 7.156 24.1303C7.22 24.0663 7.296 24.0343 7.384 24.0343L9.052 24.0343C9.14 24.0343 9.216 24.0663 9.28 24.1303C9.344 24.1943 9.376 24.2703 9.376 24.3583L9.376 26.2663L11.188 26.2663C11.276 26.2663 11.352 26.2983 11.416 26.3623C11.48 26.4263 11.512 26.5023 11.512 26.5903L11.512 28.4143C11.512 28.5023 11.48 28.5783 11.416 28.6423C11.352 28.7063 11.276 28.7383 11.188 28.7383L9.376 28.7383L9.376 30.6463C9.376 30.7343 9.344 30.8103 9.28 30.8743C9.216 30.9383 9.14 30.9703 9.052 30.9703L7.384 30.9703C7.296 30.9703 7.22 30.9383 7.156 30.8743C7.092 30.8103 7.06 30.7343 7.06 30.6463L7.06 28.7383L5.188 28.7383C5.1 28.7383 5.024 28.7063 4.96 28.6423C4.896 28.5783 4.864 28.5023 4.864 28.4143L4.864 26.5903C4.864 26.5023 4.896 26.4263 4.96 26.3623C5.024 26.2983 5.1 26.2663 5.188 26.2663L7.06 26.2663L7.06 24.3583Z" fill="#29FD2F"/>
<path d="M13.9665 14.6606C13.2764 15.215 12.6683 15.6025 12.1422 15.8231C11.6104 16.0494 11.1353 16.1229 10.7166 16.0437C10.298 15.9645 9.90206 15.7383 9.52871 15.3649C9.01393 14.8501 8.79332 14.2109 8.86686 13.4472C8.94039 12.6836 9.27981 11.9029 9.88509 11.1053L9.34203 10.5622C9.27981 10.5 9.24869 10.4237 9.24869 10.3331C9.24869 10.2426 9.27981 10.1663 9.34203 10.104L10.4791 8.96701C10.5413 8.90479 10.6177 8.87367 10.7082 8.87367C10.7987 8.87367 10.875 8.90479 10.9373 8.96701L11.4803 9.51007C12.029 9.08581 12.5551 8.79165 13.0586 8.6276C13.562 8.47487 14.0174 8.4381 14.4247 8.51729C14.832 8.59649 15.1742 8.77468 15.4514 9.05186C15.508 9.10843 15.5363 9.17066 15.5363 9.23854C15.5306 9.31208 15.4995 9.37713 15.4429 9.4337L13.7035 11.1732C13.5847 11.292 13.4517 11.3514 13.3047 11.3514C13.118 11.357 12.9483 11.4023 12.7955 11.4871C12.6485 11.5776 12.4674 11.7304 12.2525 11.9453C11.7151 12.4827 11.5284 12.8335 11.6925 12.9975C11.7603 13.0654 11.8537 13.0852 11.9725 13.0569C12.0913 13.0399 12.2581 12.9579 12.4731 12.8108C12.6881 12.6751 12.9879 12.4545 13.3725 12.149C14.238 11.4645 15.0243 11.0629 15.7314 10.9441C16.4442 10.8309 17.0721 11.0459 17.6152 11.589C18.096 12.0698 18.3223 12.6581 18.294 13.3539C18.2714 14.0554 17.997 14.7709 17.4709 15.5007L18.0734 16.1031C18.1356 16.1654 18.1667 16.2417 18.1667 16.3322C18.1667 16.4227 18.1356 16.4991 18.0734 16.5613L16.9364 17.6984C16.8741 17.7606 16.7978 17.7917 16.7073 17.7917C16.6167 17.7917 16.5404 17.7606 16.4782 17.6984L15.8757 17.0959C15.3666 17.458 14.8603 17.704 14.3568 17.8341C13.8534 17.9642 13.4037 17.9954 13.0077 17.9275C12.606 17.8652 12.2977 17.7267 12.0828 17.5117C12.0262 17.4551 12.0008 17.3901 12.0064 17.3165C12.0064 17.2486 12.0375 17.1836 12.0997 17.1214L13.9241 15.297C14.0259 15.1952 14.1475 15.1415 14.289 15.1358C14.4077 15.1302 14.5265 15.1019 14.6453 15.051C14.7641 15 14.9112 14.8869 15.0866 14.7115C15.4656 14.3325 15.5759 14.0638 15.4175 13.9054C15.3326 13.8206 15.1912 13.8262 14.9932 13.9224C14.8009 14.0242 14.4587 14.2703 13.9665 14.6606Z" fill="#29FD2F"/>
<path d="M41.0263 14.1975C41.411 13.8128 41.8381 13.6573 42.3076 13.7308C42.7771 13.8043 43.2381 14.0674 43.6907 14.5199C44.1432 14.9725 44.4091 15.4363 44.4883 15.9115C44.5618 16.381 44.4034 16.811 44.0131 17.2013L43.2325 17.9819C42.8422 18.3722 42.4094 18.5278 41.9342 18.4486C41.4534 18.3638 40.9924 18.1007 40.5511 17.6595C40.1156 17.2239 39.861 16.7657 39.7875 16.2849C39.7026 15.804 39.8497 15.3741 40.2287 14.9951L41.0263 14.1975ZM37.3861 14.0023C37.2843 14.0136 37.2023 14.0108 37.14 13.9938C37.0665 13.9769 36.993 13.9316 36.9194 13.8581L36.2067 13.1453C36.1444 13.0831 36.1133 13.018 36.1133 12.9501C36.102 12.8823 36.1218 12.8229 36.1727 12.772C36.2067 12.738 36.2491 12.7182 36.3 12.7126L45.9223 11.304C46.0241 11.2927 46.1118 11.2955 46.1854 11.3125C46.2476 11.3295 46.3155 11.3747 46.389 11.4483L47.1018 12.161C47.164 12.2232 47.2008 12.2883 47.2121 12.3562C47.2121 12.4241 47.1866 12.4835 47.1357 12.5344C47.1018 12.5683 47.0593 12.5881 47.0084 12.5938L37.3861 14.0023ZM42.7912 15.9794C42.8704 15.9002 42.9129 15.8069 42.9185 15.6994C42.9185 15.5862 42.8789 15.4901 42.7997 15.4109C42.7205 15.3317 42.6272 15.2949 42.5197 15.3006C42.4066 15.3006 42.3104 15.3402 42.2312 15.4194L41.4336 16.217C41.3544 16.2962 41.3176 16.3895 41.3233 16.497C41.3176 16.6045 41.3544 16.6978 41.4336 16.777C41.5128 16.8562 41.609 16.8958 41.7221 16.8958C41.8296 16.8901 41.9201 16.8506 41.9936 16.777L42.7912 15.9794ZM40.0844 7.33289C40.4691 6.94823 40.8962 6.79266 41.3657 6.8662C41.8352 6.93974 42.2963 7.20279 42.7488 7.65533C43.2014 8.10788 43.4672 8.57174 43.5464 9.04692C43.62 9.51644 43.4616 9.94636 43.0713 10.3367L42.2906 11.1173C41.9003 11.5077 41.4675 11.6632 40.9924 11.584C40.5115 11.4992 40.0505 11.2361 39.6093 10.7949C39.1737 10.3593 38.9191 9.9011 38.8456 9.42027C38.7607 8.93944 38.9078 8.50952 39.2868 8.13051L40.0844 7.33289ZM41.8494 9.1148C41.9286 9.03561 41.971 8.94227 41.9767 8.83479C41.9767 8.72165 41.9371 8.62548 41.8579 8.54629C41.7787 8.46709 41.6853 8.43032 41.5779 8.43598C41.4647 8.43598 41.3685 8.47558 41.2894 8.55477L40.4917 9.35239C40.4125 9.43159 40.3758 9.52492 40.3814 9.6324C40.3758 9.73988 40.4125 9.83322 40.4917 9.91242C40.5709 9.99161 40.6671 10.0312 40.7802 10.0312C40.8877 10.0256 40.9782 9.98596 41.0518 9.91242L41.8494 9.1148Z" fill="#29FD2F"/>
</svg>
