<svg xmlns="http://www.w3.org/2000/svg" viewBox="0 0 44.3 50.21"><defs><style>.cls-1{fill:#fff;}</style></defs><title>logo-html</title><g id="Layer_2" data-name="Layer 2"><g id="Layer_2-2" data-name="Layer 2"><path class="cls-1" d="M0,.29,3.87,45a.27.27,0,0,0,.2.23l18,5h.14l17.89-5A.27.27,0,0,0,40.3,45L44.3.29A.27.27,0,0,0,44,0H.27A.27.27,0,0,0,0,.29ZM35.35,14.74H14.61a.27.27,0,0,0-.26.29l.47,5.21a.28.28,0,0,0,.27.24H34.77a.27.27,0,0,1,.27.29L33.52,37.38a.28.28,0,0,1-.2.24l-11.1,3.06h-.14L10.85,37.62a.27.27,0,0,1-.19-.24L10,29.11a.27.27,0,0,1,.27-.28h5.07a.26.26,0,0,1,.26.25l.24,3.86a.26.26,0,0,0,.19.24l6,1.63h.14l5.89-1.63A.27.27,0,0,0,28.3,33l.61-6.57a.27.27,0,0,0-.27-.29H10a.26.26,0,0,1-.26-.24L8.22,9.55a.27.27,0,0,1,.26-.29H35.82a.27.27,0,0,1,.26.29l-.47,4.95A.26.26,0,0,1,35.35,14.74Z"/></g></g></svg>