<svg xmlns="http://www.w3.org/2000/svg" viewBox="0 0 49.7 49.7"><defs><style>.cls-1{fill:#fff;}</style></defs><title>logo-js</title><g id="Layer_2" data-name="Layer 2"><g id="Layer_2-2" data-name="Layer 2"><path class="cls-1" d="M0,0V49.7H49.7V0ZM26.57,38.55c0,4.21-1.93,7.65-6.4,7.65a6.7,6.7,0,0,1-6.41-3.92l2.62-2.07c.88,1.71,2,2.44,3.34,2.44,2,0,3.05-1.17,3.05-4.46V22.72h3.8Zm11.6,7.65a10.64,10.64,0,0,1-7.72-3.37L32.66,40a8.17,8.17,0,0,0,5.59,2.63c2.41,0,3.73-1.18,3.73-3s-1.38-2.5-3.33-3.39l-2.93-1.37c-2.11-.94-4.33-2.74-4.33-6.11,0-3.67,3-6.5,7.2-6.5a9.07,9.07,0,0,1,6.6,2.94l-1.95,2.6a6.64,6.64,0,0,0-4.65-2c-2,0-3.36,1-3.36,2.71s1.63,2.48,3.41,3.27l2.89,1.3c2.55,1.14,4.33,2.88,4.33,6.22C45.86,43.09,43,46.2,38.17,46.2Z"/></g></g></svg>