<svg width="44" height="50" viewBox="0 0 44 50" fill="none" xmlns="http://www.w3.org/2000/svg">
<path fill-rule="evenodd" clip-rule="evenodd" d="M23 0.577271C22.3813 0.220337 21.6187 0.220337 21 0.577271L1.34912 11.923C0.730469 12.2799 0.349609 12.9401 0.349609 13.6549V36.3453C0.349609 37.0602 0.730469 37.7203 1.34961 38.0773L21 49.423C21.2866 49.5885 21.6045 49.6774 21.9248 49.6896C22.2949 49.7032 22.668 49.6144 23 49.423L42.6509 38.0773C43.0503 37.8468 43.3501 37.4904 43.5132 37.0743C43.6025 36.8453 43.6504 36.5988 43.6504 36.3453V13.6549C43.6504 12.9401 43.2695 12.2799 42.6504 11.923L23 0.577271ZM15.4663 22.5343L18.3853 20.8395C17.0488 18.5436 14.5615 17.0001 11.7134 17.0001C7.45361 17.0001 4 20.4537 4 24.7135C4 28.9738 7.45361 32.4274 11.7134 32.4274C14.5718 32.4274 17.0669 30.8727 18.3994 28.5631L15.4746 26.879C14.7251 28.1783 13.3218 29.0529 11.7139 29.0529C9.31738 29.0529 7.375 27.1105 7.375 24.714C7.375 22.3175 9.31738 20.3751 11.7139 20.3751C13.3154 20.3751 14.7148 21.2433 15.4663 22.5343ZM27.1997 21.0001H25.1997V24.0001H22.1997V26.0001H25.1997V29.0001H27.1997V26.0001H30.1997V24.0001H27.1997V21.0001ZM35.1997 21.0001H37.1997V24.0001H40.1997V26.0001H37.1997V29.0001H35.1997V26.0001H32.1997V24.0001H35.1997V21.0001Z" fill="white"/>
</svg>
