<svg xmlns="http://www.w3.org/2000/svg" viewBox="0 0 48.59 48.81"><defs><style>.cls-1{fill:#fff;}</style></defs><title>logo-python</title><g id="Layer_2" data-name="Layer 2"><g id="Layer_2-2" data-name="Layer 2"><path class="cls-1" d="M35.86,6.33C35.75,1.5,31.09,0,24.28,0,15.4,0,12.45,1.7,12.45,6.5V11H24.19v1.49s-13.48-.1-16.88.05S0,15.38,0,24.23C0,32.61,2.78,36.1,7.41,36.32a28,28,0,0,0,3.71,0s-.06-4.68,0-5.55a7.29,7.29,0,0,1,7.81-7.15c7.2.05,7.71.05,10.23,0s6.58-.31,6.68-6.32S36,10.62,35.86,6.33ZM17.84,8A2.18,2.18,0,1,1,19.79,6,2.19,2.19,0,0,1,17.84,8Z"/><path class="cls-1" d="M12.74,42.48c.1,4.83,4.76,6.34,11.57,6.33,8.89,0,11.83-1.7,11.83-6.5V37.78H24.41V36.29s13.48.11,16.87,0,7.31-2.8,7.31-11.66c0-8.38-2.77-11.87-7.41-12.09a27.75,27.75,0,0,0-3.7,0s.05,4.68,0,5.55a7.3,7.3,0,0,1-7.82,7.15c-7.19-.05-7.71-.05-10.23,0s-6.58.31-6.68,6.32S12.64,38.19,12.74,42.48Zm18-1.65a2.18,2.18,0,1,1-1.95,2A2.19,2.19,0,0,1,30.75,40.83Z"/></g></g></svg>