<svg xmlns="http://www.w3.org/2000/svg" viewBox="0 0 43.49 49.63"><defs><style>.cls-1{fill:#fff;}</style></defs><title>logo-c</title><g id="Layer_2" data-name="Layer 2"><g id="Layer_2-2" data-name="Layer 2"><path class="cls-1" d="M20.8.25,1,11.71A1.9,1.9,0,0,0,0,13.36V36.27a1.9,1.9,0,0,0,1,1.65L20.8,49.37a1.88,1.88,0,0,0,1.89,0L42.54,37.92a1.9,1.9,0,0,0,1-1.65V13.36a1.9,1.9,0,0,0-1-1.65L22.69.25A1.93,1.93,0,0,0,20.8.25ZM21.74,34a9.14,9.14,0,0,0,7.93-4.58l5.86,3.38a15.92,15.92,0,1,1,0-15.92l-5.86,3.38A9.16,9.16,0,1,0,21.74,34Z"/></g></g></svg>