<svg xmlns="http://www.w3.org/2000/svg" viewBox="0 0 44.33 50.21"><defs><style>.cls-1{fill:#fff;}</style></defs><title>logo-css</title><g id="Layer_2" data-name="Layer 2"><g id="Layer_2-2" data-name="Layer 2"><path class="cls-1" d="M0,.14,3.89,45a.15.15,0,0,0,.1.12l18.14,5.05h.07l18-5.05A.13.13,0,0,0,40.3,45l4-44.9A.14.14,0,0,0,44.2,0H.13A.13.13,0,0,0,0,.14ZM35.91,15,23.7,20a.13.13,0,0,0,.05.25l11,0a.12.12,0,0,1,.13.14L33.52,37.22a.13.13,0,0,1-.09.11l-11,3.43h-.07l-11.52-3.2a.13.13,0,0,1-.09-.12L10,29a.14.14,0,0,1,.13-.14h5.2a.12.12,0,0,1,.13.12l.45,4a.14.14,0,0,0,.1.11l5.72,1.49h.06l6.4-1.28a.12.12,0,0,0,.1-.11L29,26.05a.12.12,0,0,0-.13-.14h-19a.13.13,0,0,1-.13-.11l-.75-5a.13.13,0,0,1,.08-.14l12.39-5.42a.13.13,0,0,0-.06-.25L8.84,15a.14.14,0,0,1-.13-.11L8.09,9.8a.13.13,0,0,1,.13-.15H35.86a.13.13,0,0,1,.13.13v5.13A.12.12,0,0,1,35.91,15Z"/></g></g></svg>